<?xml version="1.0" encoding="utf-8"?>
<!-- Generator: Adobe Illustrator 25.2.0, SVG Export Plug-In . SVG Version: 6.00 Build 0)  -->
<svg version="1.1" id="Layer_1" xmlns="http://www.w3.org/2000/svg" xmlns:xlink="http://www.w3.org/1999/xlink" x="0px" y="0px"
	 viewBox="0 0 2500 2500" style="enable-background:new 0 0 2500 2500;" xml:space="preserve">
<style type="text/css">
	.st0{fill:#F1F2F2;}
	.st1{fill:#E6E7E8;}
	.st2{fill:#D1D3D4;}
	.st3{fill:#58595B;}
</style>
<rect x="35.64" y="35.7" class="st0" width="2429.3" height="2429.3"/>
<g>
	<circle class="st1" cx="1250.29" cy="1250.35" r="888.71"/>
	<circle class="st2" cx="1250.29" cy="1250.35" r="888.71"/>
	<path class="st3" d="M660.22,1914.89c156.94,139.45,363.62,224.16,590.08,224.16s433.14-84.71,590.08-224.16
		c-84.39-185.43-223.96-327.11-391.09-390.74c123.53-69.61,206.96-202.01,206.96-353.9c0-224.2-181.75-405.94-405.94-405.94
		c-224.2,0-405.94,181.75-405.94,405.94c0,151.89,83.43,284.3,206.96,353.9C884.18,1587.78,744.61,1729.46,660.22,1914.89z"/>
</g>
</svg>
